<mxfile host="Electron" agent="Mozilla/5.0 (Windows NT 10.0; Win64; x64) AppleWebKit/537.36 (KHTML, like Gecko) draw.io/24.7.17 Chrome/128.0.6613.36 Electron/32.0.1 Safari/537.36" version="24.7.17" pages="2">
  <diagram name="Page-1" id="Page-1">
    <mxGraphModel dx="584" dy="836" grid="1" gridSize="10" guides="1" tooltips="1" connect="1" arrows="1" fold="1" page="1" pageScale="1" pageWidth="850" pageHeight="1100" math="0" shadow="0">
      <root>
        <mxCell id="0" />
        <mxCell id="1" parent="0" />
        <UserObject label="" tags="Background" id="2">
          <mxCell style="vsdxID=122;fillColor=#eeeaf2;gradientColor=none;fillOpacity=16;shape=stencil(tZJNbsMgEIVPw9IjDAbDOk3vgRJso1JjYdI4ty+UWIWqlrrpbn6+B8NjED2tk1o0IngN3r3pu7mGCdEXRIiZJ+1NiBGiZ0RPg/N69O42X3O+qESm6N19pBO2rOs4SJlUBD9yBX9lrxm2Zi5gSeDPbItxhVIMHS1x5S+x6/c5WAtCZIXfJUwC63LtiYkWZF+d2zPonrqtUZtZG++CCsbN5YjYKj/qJt7ZDFaNVWu9a70U5fb4UVQAYdX1+zN/xeNovKJFdJsf87VjnEFKjxwjnEBPa8cIloBrx44++F/cisH3og3G2rynZf/nYsZSXmp6/gQ=);dashed=1;dashPattern=2.00 2.00;strokeColor=#000000;strokeWidth=2;points=[];labelBackgroundColor=#ffffff;rounded=0;html=1;whiteSpace=wrap;" parent="1" vertex="1">
            <mxGeometry x="1537" y="860" width="366" height="380" as="geometry" />
          </mxCell>
        </UserObject>
        <UserObject label="" tags="Background" id="3">
          <mxCell style="vsdxID=9;fillColor=none;gradientColor=none;strokeColor=none;strokeWidth=2;spacingTop=3;spacingBottom=3;points=[[1,0.5,0],[0.5,0.5,0],[0.5,0,0]];labelBackgroundColor=none;rounded=0;html=1;whiteSpace=wrap;" parent="1" vertex="1">
            <mxGeometry x="1257" y="70" width="260" height="145" as="geometry" />
          </mxCell>
        </UserObject>
        <mxCell id="4" style="vsdxID=10;fillColor=#f2f2f2;gradientColor=none;shape=stencil(1ZLdDoIwDIWfZpczc4u+AOIl79DIgMW5kTIF3t4txYgYJfHOu7bna7ufw1TWNdBqJkUX0J91b8rQMHVgUhrXaDQhRkzlTGWVR12jv7qS8hYSmaKLv6UJA/WJ1CHFSNlWUH4k1Bo3Qx/iT7ASm93+M74CA56iihNcQEE4jovCyjQxcBhMx9EHCMa7F9oC1prHTbyyUE+3IKnrtW7fyn9wtm+PvPi+GDw9UhlryWJzfempWCI/qvwO);strokeColor=#000000;strokeWidth=2;points=[[0,0.5,0],[1,0.5,0],[0.5,1,0],[0.5,0,0]];labelBackgroundColor=none;rounded=0;html=1;whiteSpace=wrap;" parent="3" vertex="1">
          <mxGeometry width="260" height="145" as="geometry" />
        </mxCell>
        <mxCell id="5" style="vsdxID=11;fillColor=#ffffff;gradientColor=none;shape=stencil(zZJNDsIgEIVPw5IE4Qi1LnuHiYWWiNAMaNvbC5lGazVduHI3P9/Mm0weU1XsYdBMipgwXPRo29QzdWRSWt9rtClHTNVMVSag7jDcfEv5AIUs0TXcy4aJ5kSZkGKm7CAoPxEKeM49XNAGGoJx3hR2d4mJw2Qjx5Ag2eDfWAfYaZ51uHHQLYPUiqPWw0f57y9z1q/e+5T6/uB9eAf9EdzI5+DlC2OdI1ut+1sf5RJ5UNUP);strokeColor=#000000;strokeWidth=2;points=[[0,0.5,0],[1,0.5,0],[0.5,1,0],[0.5,0,0]];labelBackgroundColor=none;rounded=0;html=1;whiteSpace=wrap;" parent="3" vertex="1">
          <mxGeometry width="260" height="44" as="geometry" />
        </mxCell>
        <mxCell id="6" value="&lt;div style=&quot;font-size: 1px&quot;&gt;&lt;font style=&quot;font-size:16.93px;font-family:Calibri;color:#000000;direction:ltr;letter-spacing:0px;line-height:120%;opacity:1&quot;&gt;WeatherData&lt;br/&gt;&lt;/font&gt;&lt;/div&gt;" style="text;vsdxID=9;fillColor=none;gradientColor=none;strokeColor=none;strokeWidth=2;spacingTop=3;spacingBottom=3;points=[[1,0.5,0],[0.5,0.5,0],[0.5,0,0]];labelBackgroundColor=none;rounded=0;html=1;whiteSpace=wrap;verticalAlign=middle;align=left;overflow=width;;html=1;" parent="3" vertex="1">
          <mxGeometry y="-0.01" width="260" height="44.31" as="geometry" />
        </mxCell>
        <UserObject label="&lt;div style=&quot;font-size: 1px&quot;&gt;&lt;font style=&quot;font-size:14.11px;font-family:Calibri;color:#000000;direction:ltr;letter-spacing:0px;line-height:120%;opacity:1&quot;&gt;+GetTemperature():double&lt;br/&gt;&lt;/font&gt;&lt;/div&gt;" tags="Background" id="7">
          <mxCell style="verticalAlign=middle;align=left;overflow=width;vsdxID=14;fillColor=#ffffff;gradientColor=none;fillOpacity=0;shape=stencil(nZBLDoAgDERP0z3SIyjew0SURgSD+Lu9kMZoXLhwN9N5bdMClrNpJg1SzDH4QW/URgNYgZTkjA4UkwJUgGXng+6DX1zLfmoymdXo1zxh5z6RO6Q42BWCfc2oJfdAr/AX/IH+BF/rk7hv7MjaZ/L+RirxJ1Gd);strokeColor=#000000;strokeWidth=2;spacingTop=-3;spacingBottom=-3;spacingLeft=3;spacingRight=-3;points=[];labelBackgroundColor=none;rounded=0;html=1;whiteSpace=wrap;" parent="1" vertex="1">
            <mxGeometry x="1261" y="118" width="252" height="16" as="geometry" />
          </mxCell>
        </UserObject>
        <UserObject label="" tags="Background" id="8">
          <mxCell style="vsdxID=15;fillColor=#ffffff;gradientColor=none;shape=stencil(fY9LDoAgDERP0z3SeALUe5gI0ohgEH+3F9KFxoW7mfa1nQKq1faLBinWFMOkDxqSBWxASvJWR0pZAbaAyoSoxxg2P7Bf+kIWNYe9bDh5TpQJKS52NduOSUf+RVbij83iOWHIOU747n8j5RK/g+0N);dashed=1;dashPattern=2.00 2.00;strokeColor=#000000;strokeWidth=2;points=[];labelBackgroundColor=none;rounded=0;html=1;whiteSpace=wrap;" parent="1" vertex="1">
            <mxGeometry x="1261" y="169" width="252" height="4" as="geometry" />
          </mxCell>
        </UserObject>
        <UserObject label="&lt;div style=&quot;font-size: 1px&quot;&gt;&lt;font style=&quot;font-size:14.11px;font-family:Calibri;color:#000000;direction:ltr;letter-spacing:0px;line-height:120%;opacity:1&quot;&gt;+MeasurementsChanged()&lt;br/&gt;&lt;/font&gt;&lt;/div&gt;" tags="Background" id="9">
          <mxCell style="verticalAlign=middle;align=left;overflow=width;vsdxID=16;fillColor=#ffffff;gradientColor=none;fillOpacity=0;shape=stencil(nZBLDoAgDERP0z3SIyjew0SURgSD+Lu9kMZoXLhwN9N5bdMClrNpJg1SzDH4QW/URgNYgZTkjA4UkwJUgGXng+6DX1zLfmoymdXo1zxh5z6RO6Q42BWCfc2oJfdAr/AX/IH+BF/rk7hv7MjaZ/L+RirxJ1Gd);strokeColor=#000000;strokeWidth=2;spacingTop=-3;spacingBottom=-3;spacingLeft=3;spacingRight=-3;points=[];labelBackgroundColor=none;rounded=0;html=1;whiteSpace=wrap;" parent="1" vertex="1">
            <mxGeometry x="1261" y="173" width="252" height="16" as="geometry" />
          </mxCell>
        </UserObject>
        <UserObject label="&lt;div style=&quot;font-size: 1px&quot;&gt;&lt;font style=&quot;font-size:14.11px;font-family:Calibri;color:#000000;direction:ltr;letter-spacing:0px;line-height:120%;opacity:1&quot;&gt;+GetHumidity():double&lt;br/&gt;&lt;/font&gt;&lt;/div&gt;" tags="Background" id="10">
          <mxCell style="verticalAlign=middle;align=left;overflow=width;vsdxID=17;fillColor=#ffffff;gradientColor=none;fillOpacity=0;shape=stencil(nZBLDoAgDERP0z3SIyjew0SURgSD+Lu9kMZoXLhwN9N5bdMClrNpJg1SzDH4QW/URgNYgZTkjA4UkwJUgGXng+6DX1zLfmoymdXo1zxh5z6RO6Q42BWCfc2oJfdAr/AX/IH+BF/rk7hv7MjaZ/L+RirxJ1Gd);strokeColor=#000000;strokeWidth=2;spacingTop=-3;spacingBottom=-3;spacingLeft=3;spacingRight=-3;points=[];labelBackgroundColor=none;rounded=0;html=1;whiteSpace=wrap;" parent="1" vertex="1">
            <mxGeometry x="1261" y="135" width="252" height="16" as="geometry" />
          </mxCell>
        </UserObject>
        <UserObject label="&lt;div style=&quot;font-size: 1px&quot;&gt;&lt;font style=&quot;font-size:14.11px;font-family:Calibri;color:#000000;direction:ltr;letter-spacing:0px;line-height:120%;opacity:1&quot;&gt;+GetPressure():double&lt;br/&gt;&lt;/font&gt;&lt;/div&gt;" tags="Background" id="11">
          <mxCell style="verticalAlign=middle;align=left;overflow=width;vsdxID=18;fillColor=#ffffff;gradientColor=none;fillOpacity=0;shape=stencil(nZBLDoAgDERP0z3SIyjew0SURgSD+Lu9kMZoXLhwN9N5bdMClrNpJg1SzDH4QW/URgNYgZTkjA4UkwJUgGXng+6DX1zLfmoymdXo1zxh5z6RO6Q42BWCfc2oJfdAr/AX/IH+BF/rk7hv7MjaZ/L+RirxJ1Gd);strokeColor=#000000;strokeWidth=2;spacingTop=-3;spacingBottom=-3;spacingLeft=3;spacingRight=-3;points=[];labelBackgroundColor=none;rounded=0;html=1;whiteSpace=wrap;" parent="1" vertex="1">
            <mxGeometry x="1261" y="152" width="252" height="16" as="geometry" />
          </mxCell>
        </UserObject>
        <UserObject label="&lt;div style=&quot;font-size: 1px&quot;&gt;&lt;/div&gt;" tags="Background" id="12">
          <mxCell style="verticalAlign=middle;align=center;overflow=width;vsdxID=19;fillColor=#ffffff;gradientColor=none;shape=stencil(vVHLDsIgEPwajiQI6RfU+h8bu22JCGRB2/69kG1iazx58DazM/vIjjBtmiCi0CplCjecbZ8nYc5Ca+snJJsLEqYTph0C4Ujh4XvmEaqzont41gkL96naodXKrGF6YSfQtUi0OXXDVlqPfJNP6usotUhYbJIUMmQb/GGrAxpRljVycDBuc1hKM2LclX8/7H9nFfB+82Cd45T2+mcspcSRmu4F);strokeColor=#000000;strokeWidth=2;points=[];labelBackgroundColor=none;rounded=0;html=1;whiteSpace=wrap;" parent="1" vertex="1">
            <mxGeometry x="1210" y="366" width="72" height="72" as="geometry" />
          </mxCell>
        </UserObject>
        <UserObject label="" tags="Background" id="13">
          <mxCell style="vsdxID=20;fillColor=#ffffff;gradientColor=none;shape=stencil(vVHLDsIgEPwajiQI6RfU+h8bu22JCGRB2/69kG1iazx58DazM/vIjjBtmiCi0CplCjecbZ8nYc5Ca+snJJsLEqYTph0C4Ujh4XvmEaqzont41gkL96naodXKrGF6YSfQtUi0OXXDVlqPfJNP6usotUhYbJIUMmQb/GGrAxpRljVycDBuc1hKM2LclX8/7H9nFfB+82Cd45T2+mcspcSRmu4F);strokeColor=#000000;strokeWidth=2;points=[];labelBackgroundColor=none;rounded=0;html=1;whiteSpace=wrap;" parent="1" vertex="1">
            <mxGeometry x="1214" y="502" width="72" height="72" as="geometry" />
          </mxCell>
        </UserObject>
        <UserObject label="" tags="Background" id="14">
          <mxCell style="vsdxID=21;fillColor=#ffffff;gradientColor=none;shape=stencil(vVHLDsIgEPwajiQI6RfU+h8bu22JCGRB2/69kG1iazx58DazM/vIjjBtmiCi0CplCjecbZ8nYc5Ca+snJJsLEqYTph0C4Ujh4XvmEaqzont41gkL96naodXKrGF6YSfQtUi0OXXDVlqPfJNP6usotUhYbJIUMmQb/GGrAxpRljVycDBuc1hKM2LclX8/7H9nFfB+82Cd45T2+mcspcSRmu4F);strokeColor=#000000;strokeWidth=2;points=[];labelBackgroundColor=none;rounded=0;html=1;whiteSpace=wrap;" parent="1" vertex="1">
            <mxGeometry x="1210" y="634" width="72" height="72" as="geometry" />
          </mxCell>
        </UserObject>
        <UserObject label="&lt;div style=&quot;font-size: 1px&quot;&gt;&lt;font style=&quot;font-size:16.93px;font-family:Calibri;color:#000000;direction:ltr;letter-spacing:0px;line-height:120%;opacity:1&quot;&gt;Метеостанция&lt;br/&gt;&lt;/font&gt;&lt;/div&gt;" tags="Background" id="15">
          <mxCell style="verticalAlign=middle;align=center;overflow=width;vsdxID=22;fillColor=#ffffff;gradientColor=none;shape=stencil(nZBLDoAgDERP0z3SIyjew0SURgSD+Lu9kMZoXLhwN9O+tukAlrNpJg1SzDH4QW/URgNYgZTkjA4UkwJUgGXng+6DX1zLfmoymdXo17xh5zmRJ6Q42BWCfc2oJfdAr+Yv+AP9Cb7OJ3H/2JG1HNGz/84klThPVCc=);strokeColor=#000000;strokeWidth=2;points=[];labelBackgroundColor=none;rounded=0;html=1;whiteSpace=wrap;" parent="1" vertex="1">
            <mxGeometry x="1414" y="466" width="192" height="128" as="geometry" />
          </mxCell>
        </UserObject>
        <UserObject label="" tags="Background" id="16">
          <mxCell style="vsdxID=23;fillColor=#4bacc6;gradientColor=none;shape=stencil(vVHLDsIgEPwajiQI6RfU+h8bu22JCGRB2/69kG1iazx58DazM/vIjjBtmiCi0CplCjecbZ8nYc5Ca+snJJsLEqYTph0C4Ujh4XvmEaqzont41gkL96naodXKrGF6YSfQtUi0OXXDVlqPfJNP6usotUhYbJIUMmQb/GGrAxpRljVycDBuc1hKM2LclX8/7H9nFfB+82Cd45T2+mcspcSRmu4F);strokeColor=#235461;strokeWidth=2;points=[];labelBackgroundColor=none;rounded=0;html=1;whiteSpace=wrap;" parent="1" vertex="1">
            <mxGeometry x="1794" y="482" width="72" height="72" as="geometry" />
          </mxCell>
        </UserObject>
        <UserObject label="" tags="Background" id="17">
          <mxCell style="vsdxID=24;fillColor=none;gradientColor=none;strokeColor=none;strokeWidth=2;points=[[0.5,0.5,0]];labelBackgroundColor=none;rounded=0;html=1;whiteSpace=wrap;" parent="1" vertex="1">
            <mxGeometry x="2004" y="354" width="272" height="272" as="geometry" />
          </mxCell>
        </UserObject>
        <mxCell id="18" style="vsdxID=25;fillColor=#ffffff;gradientColor=none;shape=stencil(nZPdjoMgEIWfhtvJyCjCdX/eo2ntStZqQ+3f26+GcQuSmu7e4fE7nBlgBK0u9e5cCYmX3nXf1d0e+lrQWkhp27pyth9WgjaCVsfOVV+uu7YH/33ejeS4OnW3cYeH90kDqEeXxKdXdA5e2Hp+f3XekLGjAFTsYEkrKDIvPSRTEsqCKZa0BkVMUUqxZBBUvpgfeFgyQ0llnE8EJo/zM8Q4vcA4egLeBCuVNP7akjPKEuSs7bA4SqlP2w49WXqgU36etB1ezpSPYGScP7/1xrZ/eiXxq8JFNt779wz/ReN7FAHpY3axhGHxmp+jbRo/fuH/+bwNkp9V2vwA);strokeColor=#000000;strokeWidth=2;points=[[0.5,0.5,0]];labelBackgroundColor=none;rounded=0;html=1;whiteSpace=wrap;" parent="17" vertex="1">
          <mxGeometry y="8" width="272" height="256" as="geometry" />
        </mxCell>
        <mxCell id="19" style="vsdxID=26;fillColor=#ffffff;gradientColor=none;shape=stencil(jZTRdoMgDIafhtscSBT0umvfo2e10zNXe6zd2rcfDlSIk+0OQkK+/AkI2t3q47USKG9D371XX81pqAW9CMTmUld9M9iVoL2g3bnrq7e+u19Obn89jp7j6qP7HG94uLhcjiEon26bgc5/DAfn/Hrvnbdy51pD7gMUi5APdJYCAZV38iYbRd6JnKXUYLzp6U1KAlKYvG0uAWkY4ROVYEyK1pIQwy0JMox5bU2oY94ynwMn4Fko4i4byYkWXrW+1mdSBnTGkgeIPhkBmjj9qvZYrCBgQ1yOO4IwrWzXTEw71sRog/5vKMVnKjmAMimpgqKMGSWTM4OC9dLOgIoBGZ8G0ttKxni2NzotYwAwdd0AlzGoYwKXMq3i5LD1MAtQKs67XDk9zBwUn7WFjeVZBp2XHOuz+P+u5upNWgiMQW2H2Iss5smbQP9QR24Dpgbs/552sXyh56Zt3Q8cnvMv15rcd037bw==);strokeColor=#000000;strokeWidth=2;points=[[0.5,0.5,0]];labelBackgroundColor=none;rounded=0;html=1;whiteSpace=wrap;" parent="17" vertex="1">
          <mxGeometry x="27" y="35" width="216" height="152" as="geometry" />
        </mxCell>
        <mxCell id="20" style="vsdxID=27;fillColor=#ffffff;gradientColor=none;shape=stencil(lVPLEoIwDPyaXjskkdfZx384AtIRwSmo+PdSU4XgqOMt3W6ymzRVtGzL7SlXGLSdbQ751WRdqWilEE1d5tZ0Q6RorWhZNDbf2+ZcZ3w+bR3TRcfm4ir0nBe4DAxufEpJR/RANkzenS2zgQmw0EnkUzyUxjpmpEdGCHSSepKHIPBCPTEQPoVJEj7oRokGkLpjSa+RhBoWUnbibabzEn5ruTL1ZD4j3xvRFH0z6kygNIqapNGhmTCWRn9M5+tspuMGWQ7fXw1fpkBqziTnjcqx/Fibv8hDMG5nYaqKl3t6P9/mAeKfQOs7);strokeColor=#000000;strokeWidth=2;points=[[0.5,0.5,0]];labelBackgroundColor=none;rounded=0;html=1;whiteSpace=wrap;" parent="17" vertex="1">
          <mxGeometry x="27" y="35" width="216" height="152" as="geometry" />
        </mxCell>
        <mxCell id="21" style="vsdxID=28;fillColor=#000000;gradientColor=none;shape=stencil(xVPRDoIwDPyaPY6MFTLfEf9jkQGLyEiZgn/vcCOC4cHEqG+93rXrNR2BrK9lpwhnvUVzUoMubE1gTzjXba1QWxcRyAlkpUFVobm0hcednJRTdDbXqcPo6xIxlXB28zBlD3jwUolHR2GQxhDx1KsxyGc8Kxjb6sZGKkfdUzRWWm1aTwaukVgp6l6iZSOr0MdT/aBUt0h/NNu20a+Mtt7w5ko2TYhoB2sPcRIJsbIBcQT8T0t+Z77fHYALnkdd6qZZMq/n71L+60B+Bw==);strokeColor=#000000;strokeWidth=2;points=[[0.5,0.5,0]];labelBackgroundColor=none;rounded=0;html=1;whiteSpace=wrap;" parent="17" vertex="1">
          <mxGeometry x="200" y="189" width="36" height="19" as="geometry" />
        </mxCell>
        <UserObject label="" tags="Background" id="125">
          <mxCell style="vsdxID=36;edgeStyle=none;dashed=1;dashPattern=12.00 6.00;startArrow=none;endArrow=none;startSize=5;endSize=5;strokeColor=#000000;spacingTop=0;spacingBottom=0;spacingLeft=0;spacingRight=0;verticalAlign=middle;html=1;labelBackgroundColor=#ffffff;rounded=0;" parent="1" edge="1">
            <mxGeometry relative="1" as="geometry">
              <Array as="points" />
              <mxPoint x="1774" y="326" as="sourcePoint" />
              <mxPoint x="1774" y="736" as="targetPoint" />
            </mxGeometry>
          </mxCell>
        </UserObject>
        <UserObject label="&lt;div style=&quot;font-size: 1px&quot;&gt;&lt;font style=&quot;font-size:16.93px;font-family:Calibri;color:#000000;direction:ltr;letter-spacing:0px;line-height:120%;opacity:1&quot;&gt;Получает данные&lt;br/&gt;&lt;/font&gt;&lt;/div&gt;" tags="Background" id="27">
          <mxCell style="verticalAlign=middle;align=center;overflow=width;vsdxID=62;fillColor=none;gradientColor=none;shape=stencil(nZBLDoAgDERP0z3SIyjew0SURgSD+Lu9kMZoXLhwN9O+tukAlrNpJg1SzDH4QW/URgNYgZTkjA4UkwJUgGXng+6DX1zLfmoymdXo17xh5zmRJ6Q42BWCfc2oJfdAr+Yv+AP9Cb7OJ3H/2JG1HNGz/84klThPVCc=);strokeColor=none;strokeWidth=2;points=[];labelBackgroundColor=none;rounded=0;html=1;whiteSpace=wrap;" parent="1" vertex="1">
            <mxGeometry x="1596" y="530" width="192" height="28" as="geometry" />
          </mxCell>
        </UserObject>
        <UserObject label="&lt;div style=&quot;font-size: 1px&quot;&gt;&lt;font style=&quot;font-size:16.93px;font-family:Calibri;color:#000000;direction:ltr;letter-spacing:0px;line-height:120%;opacity:1&quot;&gt;Отображает&lt;br/&gt;&lt;/font&gt;&lt;/div&gt;" tags="Background" id="28">
          <mxCell style="verticalAlign=middle;align=center;overflow=width;vsdxID=63;fillColor=none;gradientColor=none;shape=stencil(nZBLDoAgDERP0z3SIyjew0SURgSD+Lu9kMZoXLhwN9O+tukAlrNpJg1SzDH4QW/URgNYgZTkjA4UkwJUgGXng+6DX1zLfmoymdXo17xh5zmRJ6Q42BWCfc2oJfdAr+Yv+AP9Cb7OJ3H/2JG1HNGz/84klThPVCc=);strokeColor=none;strokeWidth=2;points=[];labelBackgroundColor=none;rounded=0;html=1;whiteSpace=wrap;" parent="1" vertex="1">
            <mxGeometry x="1816" y="455" width="214" height="28" as="geometry" />
          </mxCell>
        </UserObject>
        <UserObject label="&lt;div style=&quot;font-size: 1px&quot;&gt;&lt;font style=&quot;font-size:16.93px;font-family:Calibri;color:#000000;direction:ltr;letter-spacing:0px;line-height:120%;opacity:1&quot;&gt;Датчик температуры&lt;br/&gt;&lt;/font&gt;&lt;/div&gt;" tags="Background" id="29">
          <mxCell style="verticalAlign=middle;align=center;overflow=width;vsdxID=64;fillColor=none;gradientColor=none;shape=stencil(nZBLDoAgDERP0z3SIyjew0SURgSD+Lu9kMZoXLhwN9O+tukAlrNpJg1SzDH4QW/URgNYgZTkjA4UkwJUgGXng+6DX1zLfmoymdXo17xh5zmRJ6Q42BWCfc2oJfdAr+Yv+AP9Cb7OJ3H/2JG1HNGz/84klThPVCc=);strokeColor=none;strokeWidth=2;points=[];labelBackgroundColor=none;rounded=0;html=1;whiteSpace=wrap;" parent="1" vertex="1">
            <mxGeometry x="1195" y="336" width="214" height="28" as="geometry" />
          </mxCell>
        </UserObject>
        <UserObject label="&lt;div style=&quot;font-size: 1px&quot;&gt;&lt;font style=&quot;font-size:16.93px;font-family:Calibri;color:#000000;direction:ltr;letter-spacing:0px;line-height:120%;opacity:1&quot;&gt;Датчик влажности&lt;br/&gt;&lt;/font&gt;&lt;/div&gt;" tags="Background" id="30">
          <mxCell style="verticalAlign=middle;align=center;overflow=width;vsdxID=65;fillColor=none;gradientColor=none;shape=stencil(nZBLDoAgDERP0z3SIyjew0SURgSD+Lu9kMZoXLhwN9O+tukAlrNpJg1SzDH4QW/URgNYgZTkjA4UkwJUgGXng+6DX1zLfmoymdXo17xh5zmRJ6Q42BWCfc2oJfdAr+Yv+AP9Cb7OJ3H/2JG1HNGz/84klThPVCc=);strokeColor=none;strokeWidth=2;points=[];labelBackgroundColor=none;rounded=0;html=1;whiteSpace=wrap;" parent="1" vertex="1">
            <mxGeometry x="1087" y="580" width="214" height="28" as="geometry" />
          </mxCell>
        </UserObject>
        <UserObject label="&lt;div style=&quot;font-size: 1px&quot;&gt;&lt;font style=&quot;font-size:16.93px;font-family:Calibri;color:#000000;direction:ltr;letter-spacing:0px;line-height:120%;opacity:1&quot;&gt;Датчик давления&lt;br/&gt;&lt;/font&gt;&lt;/div&gt;" tags="Background" id="31">
          <mxCell style="verticalAlign=middle;align=center;overflow=width;vsdxID=72;fillColor=none;gradientColor=none;shape=stencil(nZBLDoAgDERP0z3SIyjew0SURgSD+Lu9kMZoXLhwN9O+tukAlrNpJg1SzDH4QW/URgNYgZTkjA4UkwJUgGXng+6DX1zLfmoymdXo17xh5zmRJ6Q42BWCfc2oJfdAr+Yv+AP9Cb7OJ3H/2JG1HNGz/84klThPVCc=);strokeColor=none;strokeWidth=2;points=[];labelBackgroundColor=none;rounded=0;html=1;whiteSpace=wrap;" parent="1" vertex="1">
            <mxGeometry x="1130" y="725" width="214" height="28" as="geometry" />
          </mxCell>
        </UserObject>
        <UserObject label="&lt;div style=&quot;font-size: 1px&quot;&gt;&lt;p style=&quot;text-align:left;margin-left:0;margin-right:0;margin-top:0px;margin-bottom:0px;text-indent:0;vertical-align:top;direction:ltr;&quot;&gt;&lt;font style=&quot;font-size: 16.93px; color: rgb(0, 0, 0); direction: ltr; letter-spacing: 0px; line-height: 120%; opacity: 1;&quot;&gt;Текущее состояние:&lt;br&gt;&lt;br&gt;Температура&lt;/font&gt;&lt;font style=&quot;font-size: 16.93px; color: rgb(0, 0, 0); direction: ltr; letter-spacing: 0px; line-height: 120%; opacity: 1;&quot;&gt;:&lt;/font&gt;&lt;font style=&quot;font-size: 16.93px; color: rgb(0, 0, 0); direction: ltr; letter-spacing: 0px; line-height: 120%; opacity: 1;&quot;&gt;20°С&lt;br&gt;Влажность: 45%&lt;br&gt;Давление: 760мм рт.ст. &lt;br&gt;&lt;/font&gt;&lt;/p&gt;&lt;/div&gt;" tags="Background" id="32">
          <mxCell style="verticalAlign=top;align=left;overflow=width;vsdxID=78;fillColor=none;gradientColor=none;shape=stencil(nZBLDoAgDERP0z3SIyjew0SURgSD+Lu9kMZoXLhwN9O+tukAlrNpJg1SzDH4QW/URgNYgZTkjA4UkwJUgGXng+6DX1zLfmoymdXo17xh5zmRJ6Q42BWCfc2oJfdAr+Yv+AP9Cb7OJ3H/2JG1HNGz/84klThPVCc=);strokeColor=none;strokeWidth=2;points=[];labelBackgroundColor=none;rounded=0;html=1;whiteSpace=wrap;fontFamily=Helvetica;" parent="1" vertex="1">
            <mxGeometry x="2038" y="404" width="214" height="124" as="geometry" />
          </mxCell>
        </UserObject>
        <UserObject label="&lt;div style=&quot;font-size: 1px&quot;&gt;&lt;font style=&quot;font-size:16.93px;font-family:Calibri;color:#000000;direction:ltr;letter-spacing:0px;line-height:120%;opacity:1&quot;&gt;Предоставляет заказчик&lt;br/&gt;&lt;/font&gt;&lt;/div&gt;" tags="Background" id="33">
          <mxCell style="verticalAlign=middle;align=center;overflow=width;vsdxID=79;fillColor=none;gradientColor=none;shape=stencil(nZBLDoAgDERP0z3SIyjew0SURgSD+Lu9kMZoXLhwN9O+tukAlrNpJg1SzDH4QW/URgNYgZTkjA4UkwJUgGXng+6DX1zLfmoymdXo17xh5zmRJ6Q42BWCfc2oJfdAr+Yv+AP9Cb7OJ3H/2JG1HNGz/84klThPVCc=);strokeColor=none;strokeWidth=2;points=[];labelBackgroundColor=none;rounded=0;html=1;whiteSpace=wrap;" parent="1" vertex="1">
            <mxGeometry x="1402" y="671" width="214" height="28" as="geometry" />
          </mxCell>
        </UserObject>
        <UserObject label="&lt;div style=&quot;font-size: 1px&quot;&gt;&lt;font style=&quot;font-size:16.93px;font-family:Calibri;color:#000000;direction:ltr;letter-spacing:0px;line-height:120%;opacity:1&quot;&gt;Реализуем мы&lt;br/&gt;&lt;/font&gt;&lt;/div&gt;" tags="Background" id="34">
          <mxCell style="verticalAlign=middle;align=center;overflow=width;vsdxID=80;fillColor=none;gradientColor=none;shape=stencil(nZBLDoAgDERP0z3SIyjew0SURgSD+Lu9kMZoXLhwN9O+tukAlrNpJg1SzDH4QW/URgNYgZTkjA4UkwJUgGXng+6DX1zLfmoymdXo17xh5zmRJ6Q42BWCfc2oJfdAr+Yv+AP9Cb7OJ3H/2JG1HNGz/84klThPVCc=);strokeColor=none;strokeWidth=2;points=[];labelBackgroundColor=none;rounded=0;html=1;whiteSpace=wrap;" parent="1" vertex="1">
            <mxGeometry x="1837" y="671" width="214" height="28" as="geometry" />
          </mxCell>
        </UserObject>
        <UserObject label="&lt;div style=&quot;font-size: 1px&quot;&gt;&lt;font style=&quot;font-size:16.93px;font-family:Calibri;color:#000000;direction:ltr;letter-spacing:0px;line-height:120%;opacity:1&quot;&gt;Weather Data&lt;br/&gt;&lt;/font&gt;&lt;/div&gt;" tags="Background" id="35">
          <mxCell style="verticalAlign=middle;align=center;overflow=width;vsdxID=81;fillColor=none;gradientColor=none;shape=stencil(nZBLDoAgDERP0z3SIyjew0SURgSD+Lu9kMZoXLhwN9O+tukAlrNpJg1SzDH4QW/URgNYgZTkjA4UkwJUgGXng+6DX1zLfmoymdXo17xh5zmRJ6Q42BWCfc2oJfdAr+Yv+AP9Cb7OJ3H/2JG1HNGz/84klThPVCc=);strokeColor=none;strokeWidth=2;points=[];labelBackgroundColor=none;rounded=0;html=1;whiteSpace=wrap;" parent="1" vertex="1">
            <mxGeometry x="1745" y="565" width="192" height="28" as="geometry" />
          </mxCell>
        </UserObject>
        <UserObject label="" tags="Background" id="36">
          <mxCell style="vsdxID=82;fillColor=#ffffff;gradientColor=none;shape=stencil(fY9LDoAgDERP0z3SeALUe5gI0ohgEH+3F9KFxoW7mfa1nQKq1faLBinWFMOkDxqSBWxASvJWR0pZAbaAyoSoxxg2P7Bf+kIWNYe9bDh5TpQJKS52NduOSUf+RVbij83iOWHIOU747n8j5RK/g+0N);dashed=1;dashPattern=2.00 2.00;strokeColor=#000000;strokeWidth=2;points=[];labelBackgroundColor=none;rounded=0;html=1;whiteSpace=wrap;" parent="1" vertex="1">
            <mxGeometry x="1261" y="190" width="252" height="4" as="geometry" />
          </mxCell>
        </UserObject>
        <UserObject label="&lt;div style=&quot;font-size: 1px&quot;&gt;&lt;font style=&quot;font-size:14.11px;font-family:Calibri;color:#000000;direction:ltr;letter-spacing:0px;line-height:120%;opacity:1&quot;&gt;// &lt;/font&gt;&lt;font style=&quot;font-size:14.11px;font-family:Themed;color:#000000;direction:ltr;letter-spacing:0px;line-height:120%;opacity:1&quot;&gt;прочее&lt;br/&gt;&lt;/font&gt;&lt;/div&gt;" tags="Background" id="37">
          <mxCell style="verticalAlign=middle;align=left;overflow=width;vsdxID=83;fillColor=#ffffff;gradientColor=none;fillOpacity=0;shape=stencil(nZBLDoAgDERP0z3SIyjew0SURgSD+Lu9kMZoXLhwN9N5bdMClrNpJg1SzDH4QW/URgNYgZTkjA4UkwJUgGXng+6DX1zLfmoymdXo1zxh5z6RO6Q42BWCfc2oJfdAr/AX/IH+BF/rk7hv7MjaZ/L+RirxJ1Gd);strokeColor=#000000;strokeWidth=2;spacingTop=-3;spacingBottom=-3;spacingLeft=3;spacingRight=-3;points=[];labelBackgroundColor=none;rounded=0;html=1;whiteSpace=wrap;" parent="1" vertex="1">
            <mxGeometry x="1261" y="194" width="252" height="16" as="geometry" />
          </mxCell>
        </UserObject>
        <UserObject label="" tags="Background" id="38">
          <mxCell style="vsdxID=88;fillColor=#ffc000;gradientColor=none;shape=stencil(vVHLDsIgEPwajiQI6RfU+h8bu22JCGRB2/69kG1iazx58DazM/vIjjBtmiCi0CplCjecbZ8nYc5Ca+snJJsLEqYTph0C4Ujh4XvmEaqzont41gkL96naodXKrGF6YSfQtUi0OXXDVlqPfJNP6usotUhYbJIUMmQb/GGrAxpRljVycDBuc1hKM2LclX8/7H9nFfB+82Cd45T2+mcspcSRmu4F);strokeColor=#000000;strokeWidth=2;points=[];labelBackgroundColor=none;rounded=0;html=1;whiteSpace=wrap;" parent="1" vertex="1">
            <mxGeometry x="1265" y="968" width="72" height="72" as="geometry" />
          </mxCell>
        </UserObject>
        <UserObject label="&lt;div style=&quot;font-size: 1px&quot;&gt;&lt;font style=&quot;font-size:25.4px;font-family:Calibri;color:#000000;direction:ltr;letter-spacing:0px;line-height:120%;opacity:1&quot;&gt;Субъект&lt;br/&gt;&lt;/font&gt;&lt;/div&gt;" tags="Background" id="39">
          <mxCell style="verticalAlign=middle;align=center;overflow=width;vsdxID=90;fillColor=none;gradientColor=none;shape=stencil(nZBLDoAgDERP0z3SIyjew0SURgSD+Lu9kMZoXLhwN9O+tukAlrNpJg1SzDH4QW/URgNYgZTkjA4UkwJUgGXng+6DX1zLfmoymdXo17xh5zmRJ6Q42BWCfc2oJfdAr+Yv+AP9Cb7OJ3H/2JG1HNGz/84klThPVCc=);strokeColor=none;strokeWidth=2;points=[];labelBackgroundColor=none;rounded=0;html=1;whiteSpace=wrap;" parent="1" vertex="1">
            <mxGeometry x="1237" y="1051" width="120" height="28" as="geometry" />
          </mxCell>
        </UserObject>
        <UserObject label="&lt;div style=&quot;font-size: 1px&quot;&gt;&lt;font style=&quot;font-size:16.93px;font-family:Calibri;color:#000000;direction:ltr;letter-spacing:0px;line-height:120%;opacity:1&quot;&gt;Dog&lt;br/&gt;&lt;/font&gt;&lt;/div&gt;" tags="Background" id="40">
          <mxCell style="verticalAlign=middle;align=center;overflow=width;vsdxID=93;fillColor=#ffffff;gradientColor=none;shape=stencil(vVHLDsIgEPwajiQI6RfU+h8bu22JCGRB2/69kG1iazx58DazM/vIjjBtmiCi0CplCjecbZ8nYc5Ca+snJJsLEqYTph0C4Ujh4XvmEaqzont41gkL96naodXKrGF6YSfQtUi0OXXDVlqPfJNP6usotUhYbJIUMmQb/GGrAxpRljVycDBuc1hKM2LclX8/7H9nFfB+82Cd45T2+mcspcSRmu4F);strokeColor=#000000;strokeWidth=2;points=[];labelBackgroundColor=none;rounded=0;html=1;whiteSpace=wrap;" parent="1" vertex="1">
            <mxGeometry x="1737" y="888" width="72" height="72" as="geometry" />
          </mxCell>
        </UserObject>
        <UserObject label="&lt;div style=&quot;font-size: 1px&quot;&gt;&lt;font style=&quot;font-size:16.93px;font-family:Calibri;color:#000000;direction:ltr;letter-spacing:0px;line-height:120%;opacity:1&quot;&gt;Cat&lt;br/&gt;&lt;/font&gt;&lt;/div&gt;" tags="Background" id="41">
          <mxCell style="verticalAlign=middle;align=center;overflow=width;vsdxID=94;fillColor=#ffffff;gradientColor=none;shape=stencil(vVHLDsIgEPwajiQI6RfU+h8bu22JCGRB2/69kG1iazx58DazM/vIjjBtmiCi0CplCjecbZ8nYc5Ca+snJJsLEqYTph0C4Ujh4XvmEaqzont41gkL96naodXKrGF6YSfQtUi0OXXDVlqPfJNP6usotUhYbJIUMmQb/GGrAxpRljVycDBuc1hKM2LclX8/7H9nFfB+82Cd45T2+mcspcSRmu4F);strokeColor=#000000;strokeWidth=2;points=[];labelBackgroundColor=none;rounded=0;html=1;whiteSpace=wrap;" parent="1" vertex="1">
            <mxGeometry x="1701" y="1000" width="72" height="72" as="geometry" />
          </mxCell>
        </UserObject>
        <UserObject label="&lt;div style=&quot;font-size: 1px&quot;&gt;&lt;font style=&quot;font-size:16.93px;font-family:Calibri;color:#000000;direction:ltr;letter-spacing:0px;line-height:120%;opacity:1&quot;&gt;Duck&lt;br/&gt;&lt;/font&gt;&lt;/div&gt;" tags="Background" id="42">
          <mxCell style="verticalAlign=middle;align=center;overflow=width;vsdxID=95;fillColor=#ffffff;gradientColor=none;shape=stencil(vVHLDsIgEPwajiQI6RfU+h8bu22JCGRB2/69kG1iazx58DazM/vIjjBtmiCi0CplCjecbZ8nYc5Ca+snJJsLEqYTph0C4Ujh4XvmEaqzont41gkL96naodXKrGF6YSfQtUi0OXXDVlqPfJNP6usotUhYbJIUMmQb/GGrAxpRljVycDBuc1hKM2LclX8/7H9nFfB+82Cd45T2+mcspcSRmu4F);strokeColor=#000000;strokeWidth=2;points=[];labelBackgroundColor=none;rounded=0;html=1;whiteSpace=wrap;" parent="1" vertex="1">
            <mxGeometry x="1337" y="1144" width="72" height="72" as="geometry" />
          </mxCell>
        </UserObject>
        <UserObject label="&lt;div style=&quot;font-size: 1px&quot;&gt;&lt;font style=&quot;font-size:16.93px;font-family:Calibri;color:#000000;direction:ltr;letter-spacing:0px;line-height:120%;opacity:1&quot;&gt;Mouse&lt;br/&gt;&lt;/font&gt;&lt;/div&gt;" tags="Background" id="43">
          <mxCell style="verticalAlign=middle;align=center;overflow=width;vsdxID=96;fillColor=#ffffff;gradientColor=none;shape=stencil(vVHLDsIgEPwajiQI6RfU+h8bu22JCGRB2/69kG1iazx58DazM/vIjjBtmiCi0CplCjecbZ8nYc5Ca+snJJsLEqYTph0C4Ujh4XvmEaqzont41gkL96naodXKrGF6YSfQtUi0OXXDVlqPfJNP6usotUhYbJIUMmQb/GGrAxpRljVycDBuc1hKM2LclX8/7H9nFfB+82Cd45T2+mcspcSRmu4F);strokeColor=#000000;strokeWidth=2;points=[];labelBackgroundColor=none;rounded=0;html=1;whiteSpace=wrap;" parent="1" vertex="1">
            <mxGeometry x="1684" y="1100" width="72" height="72" as="geometry" />
          </mxCell>
        </UserObject>
        <UserObject label="&lt;div style=&quot;font-size: 1px&quot;&gt;&lt;font style=&quot;font-size:19.76px;font-family:Calibri;color:#000000;direction:ltr;letter-spacing:0px;line-height:120%;opacity:1&quot;&gt;Автоматические уведомления об изменения состояния&lt;br&gt;&lt;/font&gt;&lt;/div&gt;" tags="Background" id="47">
          <mxCell style="verticalAlign=middle;align=center;overflow=width;vsdxID=125;fillColor=none;gradientColor=none;shape=stencil(nZBLDoAgDERP0z3SIyjew0SURgSD+Lu9kMZoXLhwN9O+tukAlrNpJg1SzDH4QW/URgNYgZTkjA4UkwJUgGXng+6DX1zLfmoymdXo17xh5zmRJ6Q42BWCfc2oJfdAr+Yv+AP9Cb7OJ3H/2JG1HNGz/84klThPVCc=);strokeColor=none;strokeWidth=2;points=[];labelBackgroundColor=none;rounded=0;html=1;whiteSpace=wrap;" parent="1" vertex="1">
            <mxGeometry x="1390" y="900" width="260" height="60" as="geometry" />
          </mxCell>
        </UserObject>
        <UserObject label="" tags="Background" id="81">
          <mxCell style="vsdxID=84;fillColor=#ffffff;gradientColor=none;shape=stencil(nZLdDoMgDIWfhssRbJ1u1869h4k4yRgY1P28/SDNfiRhWbw7h35tTloYVmPfDJKBGCdnz/Km2qlneGAAyvTSqckrhjXDqrNOnpydTUt+aAIZ1MVew4Q79YnQAeJBLhPkj4RqZb7QV3EVDMCDTeH7LS8W/I/RYh0YxfXis5NOaU0rfdf/W1iRc8R0gg0gz3eLjjLjokwGiUJ4ER/SP9EnwPoJ);strokeColor=#000000;strokeWidth=2;points=[];labelBackgroundColor=none;rounded=0;html=1;whiteSpace=wrap;" parent="1" vertex="1">
            <mxGeometry x="1577" y="81" width="272" height="54" as="geometry" />
          </mxCell>
        </UserObject>
        <mxCell id="82" style="vsdxID=85;fillColor=#ffffff;gradientColor=none;shape=stencil(UzV2Ls5ILEhVNTIoLinKz04tz0wpyVA1dlE1MsrMy0gtyiwBslSNXVWNndPyi1LTi/JL81Ig/IJEkEoQKze/DGRCBUSfAUiHkUElhGdoAOG7QZTmZOYhKYVJkqfYkFomoyrFo1DXkGilZCpEcyeQgQjmtMycHEgsIcujRwtQCBKlxq4A);strokeColor=#000000;strokeWidth=2;points=[];labelBackgroundColor=none;rounded=0;html=1;whiteSpace=wrap;" parent="81" vertex="1">
          <mxGeometry x="260" width="12" height="12" as="geometry" />
        </mxCell>
        <mxCell id="83" value="&lt;div style=&quot;font-size: 1px&quot;&gt;&lt;p style=&quot;text-align:left;margin-left:0;margin-right:0;margin-top:0px;margin-bottom:0px;text-indent:0;vertical-align:middle;direction:ltr;&quot;&gt;&lt;font style=&quot;font-size:16.93px;font-family:Calibri;color:#000000;direction:ltr;letter-spacing:0px;line-height:120%;opacity:1&quot;&gt;Эти методы получают сведения от метеостанции&lt;br/&gt;&lt;/font&gt;&lt;/p&gt;&lt;/div&gt;" style="text;vsdxID=84;fillColor=none;gradientColor=none;strokeColor=none;strokeWidth=2;points=[];labelBackgroundColor=none;rounded=0;html=1;whiteSpace=wrap;verticalAlign=middle;align=left;overflow=width;;html=1;" parent="81" vertex="1">
          <mxGeometry y="1.03" width="272.6" height="51.93" as="geometry" />
        </mxCell>
        <UserObject label="" tags="Background" id="84">
          <mxCell style="vsdxID=86;fillColor=#ffffff;gradientColor=none;shape=stencil(nVLLDsIgEPwajhLcVWLPtf5Hk1IhVmgovv5eyMZHSTCmtxl2ZjOZhWE96XZUDMQUvDupm+mCZrhnAMZq5U2IiGHDsO6dV0fvLrYjPrZJmdDZXdOGO/lEcoB4EFsL4geSDsZ+SV/DRWIAnmhJXm057maGH7vFMmGWN4JPKb0ZBur0Pf+vMZRcyHKCFWy4hHkTFYdijixDBPkh4xN9Amye);strokeColor=#000000;strokeWidth=2;points=[];labelBackgroundColor=none;rounded=0;html=1;whiteSpace=wrap;" parent="1" vertex="1">
            <mxGeometry x="1577" y="173" width="260" height="54" as="geometry" />
          </mxCell>
        </UserObject>
        <mxCell id="85" style="vsdxID=87;fillColor=#ffffff;gradientColor=none;shape=stencil(UzV2Ls5ILEhVNTIoLinKz04tz0wpyVA1dlE1MsrMy0gtyiwBslSNXVWNndPyi1LTi/JL81Ig/IJEkEoQKze/DGRCBUSfAUiHkUElhGdoAOG7QZTmZOYhKYVJkqfYkFomoyrFo1DXkGilZCpEcyeQgQjmtMycHEgsIcujRwtQCBKlxq4A);strokeColor=#000000;strokeWidth=2;points=[];labelBackgroundColor=none;rounded=0;html=1;whiteSpace=wrap;" parent="84" vertex="1">
          <mxGeometry x="248" width="12" height="12" as="geometry" />
        </mxCell>
        <mxCell id="86" value="&lt;div style=&quot;font-size: 1px&quot;&gt;&lt;p style=&quot;text-align:left;margin-left:0;margin-right:0;margin-top:0px;margin-bottom:0px;text-indent:0;vertical-align:middle;direction:ltr;&quot;&gt;&lt;font style=&quot;font-size:16.93px;font-family:Calibri;color:#000000;direction:ltr;letter-spacing:0px;line-height:120%;opacity:1&quot;&gt;Вызывается всякий раз при каждом обновлении датчиков&lt;br/&gt;&lt;/font&gt;&lt;/p&gt;&lt;/div&gt;" style="text;vsdxID=86;fillColor=none;gradientColor=none;strokeColor=none;strokeWidth=2;points=[];labelBackgroundColor=none;rounded=0;html=1;whiteSpace=wrap;verticalAlign=middle;align=left;overflow=width;;html=1;" parent="84" vertex="1">
          <mxGeometry y="1.03" width="260" height="51.93" as="geometry" />
        </mxCell>
        <UserObject label="" tags="Connector" id="117">
          <mxCell style="vsdxID=117;fillColor=none;gradientColor=none;edgeStyle=none;dashed=1;strokeColor=#000000;points=[[0.02,1.12,0],[0.98,9.02,0]];labelBackgroundColor=#ffffff;rounded=0;html=1;whiteSpace=wrap;startArrow=none;endArrow=open;startSize=5;endSize=5;spacingTop=0;spacingBottom=0;spacingLeft=0;spacingRight=0;verticalAlign=middle;exitX=0.9722222222222222;exitY=0.6388888888888888;exitDx=0;exitDy=0;exitPerimeter=0;entryX=0.013888888888888888;entryY=0.3472222222222222;entryDx=0;entryDy=0;entryPerimeter=0;" parent="1" source="38" target="43" edge="1">
            <mxGeometry relative="1" as="geometry">
              <mxPoint x="-1" y="61" as="offset" />
              <Array as="points" />
            </mxGeometry>
          </mxCell>
        </UserObject>
        <UserObject label="" tags="Connector" id="118">
          <mxCell style="vsdxID=107;fillColor=none;gradientColor=none;edgeStyle=none;dashed=1;strokeColor=#000000;points=[[0.02,1.03,0],[0.98,2.94,0]];labelBackgroundColor=#ffffff;rounded=0;html=1;whiteSpace=wrap;startArrow=none;endArrow=open;startSize=5;endSize=5;spacingTop=0;spacingBottom=0;spacingLeft=0;spacingRight=0;verticalAlign=middle;exitX=1;exitY=0.5277777777777778;exitDx=0;exitDy=0;exitPerimeter=0;entryX=0;entryY=0.4583333333333333;entryDx=0;entryDy=0;entryPerimeter=0;" parent="1" source="38" target="41" edge="1">
            <mxGeometry relative="1" as="geometry">
              <mxPoint x="-1" y="20" as="offset" />
              <Array as="points" />
            </mxGeometry>
          </mxCell>
        </UserObject>
        <UserObject label="" tags="Connector" id="119">
          <mxCell style="vsdxID=97;fillColor=none;gradientColor=none;edgeStyle=none;dashed=1;strokeColor=#000000;points=[[0.02,0.98,0],[0.99,0.01,0]];labelBackgroundColor=#ffffff;rounded=0;html=1;whiteSpace=wrap;startArrow=none;endArrow=open;startSize=5;endSize=5;spacingTop=0;spacingBottom=0;spacingLeft=0;spacingRight=0;verticalAlign=middle;exitX=0.9861111111111112;exitY=0.4027777777777778;exitDx=0;exitDy=0;exitPerimeter=0;entryX=0;entryY=0.5833333333333334;entryDx=0;entryDy=0;entryPerimeter=0;" parent="1" source="38" target="40" edge="1">
            <mxGeometry relative="1" as="geometry">
              <mxPoint y="-1" as="offset" />
              <Array as="points" />
            </mxGeometry>
          </mxCell>
        </UserObject>
        <UserObject label="" tags="Connector" id="120">
          <mxCell style="vsdxID=57;fillColor=none;gradientColor=none;edgeStyle=none;strokeColor=#000000;points=[[0.02,0.46,0],[0.99,0.44,0]];labelBackgroundColor=#ffffff;rounded=0;html=1;whiteSpace=wrap;startArrow=none;endArrow=open;startSize=5;endSize=5;spacingTop=0;spacingBottom=0;spacingLeft=0;spacingRight=0;verticalAlign=middle;exitX=1;exitY=0.5;exitDx=0;exitDy=0;exitPerimeter=0;entryX=0;entryY=0.6029411764705882;entryDx=0;entryDy=0;entryPerimeter=0;" parent="1" source="16" target="17" edge="1">
            <mxGeometry relative="1" as="geometry">
              <Array as="points" />
            </mxGeometry>
          </mxCell>
        </UserObject>
        <UserObject label="" tags="Connector" id="121">
          <mxCell style="vsdxID=37;fillColor=none;gradientColor=none;edgeStyle=none;strokeColor=#000000;points=[[0.01,1.07,0],[0.98,5.78,0]];labelBackgroundColor=#ffffff;rounded=0;html=1;whiteSpace=wrap;startArrow=none;endArrow=none;startSize=5;endSize=5;spacingTop=0;spacingBottom=0;spacingLeft=0;spacingRight=0;verticalAlign=middle;exitX=0.9444444444444444;exitY=0.7222222222222222;exitDx=0;exitDy=0;exitPerimeter=0;entryX=0;entryY=0.1328125;entryDx=0;entryDy=0;entryPerimeter=0;" parent="1" source="12" target="15" edge="1">
            <mxGeometry relative="1" as="geometry">
              <mxPoint y="39" as="offset" />
              <Array as="points" />
            </mxGeometry>
          </mxCell>
        </UserObject>
        <UserObject label="" tags="Connector" id="122">
          <mxCell style="vsdxID=42;fillColor=none;gradientColor=none;edgeStyle=none;strokeColor=#000000;points=[[0.02,0.6,0],[0.98,0.4,0]];labelBackgroundColor=#ffffff;rounded=0;html=1;whiteSpace=wrap;startArrow=none;endArrow=none;startSize=5;endSize=5;spacingTop=0;spacingBottom=0;spacingLeft=0;spacingRight=0;verticalAlign=middle;exitX=1;exitY=0.4861111111111111;exitDx=0;exitDy=0;exitPerimeter=0;entryX=0;entryY=0.5234375;entryDx=0;entryDy=0;entryPerimeter=0;" parent="1" source="13" target="15" edge="1">
            <mxGeometry relative="1" as="geometry">
              <mxPoint as="offset" />
              <Array as="points" />
            </mxGeometry>
          </mxCell>
        </UserObject>
        <UserObject label="" tags="Connector" id="123">
          <mxCell style="vsdxID=47;fillColor=none;gradientColor=none;edgeStyle=none;strokeColor=#000000;points=[[0.01,0.99,0],[0.98,0.01,0]];labelBackgroundColor=#ffffff;rounded=0;html=1;whiteSpace=wrap;startArrow=none;endArrow=none;startSize=5;endSize=5;spacingTop=0;spacingBottom=0;spacingLeft=0;spacingRight=0;verticalAlign=middle;exitX=0.9444444444444444;exitY=0.2638888888888889;exitDx=0;exitDy=0;exitPerimeter=0;entryX=0;entryY=0.8984375;entryDx=0;entryDy=0;entryPerimeter=0;" parent="1" source="14" target="15" edge="1">
            <mxGeometry relative="1" as="geometry">
              <mxPoint y="-1" as="offset" />
              <Array as="points" />
            </mxGeometry>
          </mxCell>
        </UserObject>
        <UserObject label="" tags="Connector" id="124">
          <mxCell style="vsdxID=52;fillColor=none;gradientColor=none;edgeStyle=none;strokeColor=#000000;points=[[-0.15,0.55,0],[-10.33,0.53,0]];labelBackgroundColor=#ffffff;rounded=0;html=1;whiteSpace=wrap;startArrow=none;endArrow=open;startSize=5;endSize=5;spacingTop=0;spacingBottom=0;spacingLeft=0;spacingRight=0;verticalAlign=middle;exitX=0;exitY=0.5;exitDx=0;exitDy=0;exitPerimeter=0;entryX=1;entryY=0.40625;entryDx=0;entryDy=0;entryPerimeter=0;" parent="1" source="16" target="15" edge="1">
            <mxGeometry relative="1" as="geometry">
              <Array as="points" />
            </mxGeometry>
          </mxCell>
        </UserObject>
        <mxCell id="38l18jMETYPESK1Hgw2z-125" value="&lt;pre&gt;&lt;span style=&quot;font-family: Calibri; font-size: 16.93px; text-align: center; white-space: normal;&quot;&gt;Объект, который хранит состояние&lt;/span&gt;&lt;br&gt;&lt;/pre&gt;" style="shape=note;whiteSpace=wrap;html=1;backgroundOutline=1;darkOpacity=0.05;align=left;" parent="1" vertex="1">
          <mxGeometry x="1160" y="800" width="197" height="100" as="geometry" />
        </mxCell>
        <mxCell id="38l18jMETYPESK1Hgw2z-126" value="" style="endArrow=classic;html=1;rounded=0;" parent="1" source="38l18jMETYPESK1Hgw2z-125" target="38" edge="1">
          <mxGeometry width="50" height="50" relative="1" as="geometry">
            <mxPoint x="1070" y="1040" as="sourcePoint" />
            <mxPoint x="1120" y="990" as="targetPoint" />
          </mxGeometry>
        </mxCell>
        <mxCell id="38l18jMETYPESK1Hgw2z-127" value="&lt;pre&gt;&lt;span style=&quot;font-family: Calibri; font-size: 16.93px; text-align: center; white-space: normal;&quot;&gt;Зависимые объекты, которых нужно обновлять при изменении состояния при изменении состояния Субъекта&lt;/span&gt;&lt;br&gt;&lt;/pre&gt;" style="shape=note;whiteSpace=wrap;html=1;backgroundOutline=1;darkOpacity=0.05;align=left;" parent="1" vertex="1">
          <mxGeometry x="1850" y="1144" width="275" height="126" as="geometry" />
        </mxCell>
        <mxCell id="38l18jMETYPESK1Hgw2z-128" value="" style="endArrow=classic;html=1;rounded=0;entryX=0.885;entryY=0.646;entryDx=0;entryDy=0;entryPerimeter=0;" parent="1" source="38l18jMETYPESK1Hgw2z-127" target="2" edge="1">
          <mxGeometry width="50" height="50" relative="1" as="geometry">
            <mxPoint x="1880" y="1330" as="sourcePoint" />
            <mxPoint x="1930" y="1280" as="targetPoint" />
          </mxGeometry>
        </mxCell>
        <mxCell id="38l18jMETYPESK1Hgw2z-129" value="&lt;div&gt;&lt;font style=&quot;font-size: 12px;&quot;&gt;Наблюдатели должны реализовать этот интерфейс. Его единственный метод Update() вызывается при изменении состояния субъекта&lt;/font&gt;&lt;/div&gt;" style="shape=note;whiteSpace=wrap;html=1;backgroundOutline=1;darkOpacity=0.05;align=left;fontFamily=Helvetica;size=18;spacingLeft=3;fillColor=#ffff88;strokeColor=#36393d;" parent="1" vertex="1">
          <mxGeometry x="1967" y="1610" width="260" height="100" as="geometry" />
        </mxCell>
        <mxCell id="38l18jMETYPESK1Hgw2z-131" style="edgeStyle=orthogonalEdgeStyle;rounded=0;orthogonalLoop=1;jettySize=auto;html=1;entryX=0.5;entryY=0;entryDx=0;entryDy=0;entryPerimeter=0;" parent="1" source="38l18jMETYPESK1Hgw2z-129" edge="1">
          <mxGeometry relative="1" as="geometry">
            <mxPoint x="2097" y="1772" as="targetPoint" />
          </mxGeometry>
        </mxCell>
        <mxCell id="38l18jMETYPESK1Hgw2z-132" value="&lt;font style=&quot;font-size: 12px;&quot;&gt;Интерфейс субъекта. Используется объектами для регистрации в качестве наблюдателя и для исключения из списка&lt;/font&gt;" style="shape=note;whiteSpace=wrap;html=1;backgroundOutline=1;darkOpacity=0.05;align=left;fontFamily=Helvetica;size=18;fillColor=#ffff88;strokeColor=#36393d;spacingLeft=3;" parent="1" vertex="1">
          <mxGeometry x="1370" y="1570" width="420" height="70" as="geometry" />
        </mxCell>
        <mxCell id="38l18jMETYPESK1Hgw2z-133" style="edgeStyle=orthogonalEdgeStyle;rounded=0;orthogonalLoop=1;jettySize=auto;html=1;" parent="1" source="38l18jMETYPESK1Hgw2z-132" target="38l18jMETYPESK1Hgw2z-155" edge="1">
          <mxGeometry relative="1" as="geometry">
            <mxPoint x="1654" y="1651" as="targetPoint" />
          </mxGeometry>
        </mxCell>
        <mxCell id="38l18jMETYPESK1Hgw2z-134" value="Use" style="endArrow=open;endSize=12;dashed=1;html=1;rounded=0;" parent="1" source="38l18jMETYPESK1Hgw2z-155" edge="1">
          <mxGeometry width="160" relative="1" as="geometry">
            <mxPoint x="1784" y="1710.5" as="sourcePoint" />
            <mxPoint x="2049.5103448275863" y="1772" as="targetPoint" />
          </mxGeometry>
        </mxCell>
        <mxCell id="38l18jMETYPESK1Hgw2z-135" value="0..*" style="endArrow=diamondThin;endFill=0;endSize=24;html=1;rounded=0;" parent="1" source="38l18jMETYPESK1Hgw2z-136" target="38l18jMETYPESK1Hgw2z-149" edge="1">
          <mxGeometry x="-0.8917" y="17" width="160" relative="1" as="geometry">
            <mxPoint x="1968.8200000000002" y="1791.8983199999998" as="sourcePoint" />
            <mxPoint x="1784" y="1837.1005480984345" as="targetPoint" />
            <mxPoint as="offset" />
          </mxGeometry>
        </mxCell>
        <mxCell id="38l18jMETYPESK1Hgw2z-136" value="&lt;i&gt;IObserver&lt;/i&gt;" style="swimlane;fontStyle=1;align=center;verticalAlign=top;childLayout=stackLayout;horizontal=1;startSize=26;horizontalStack=0;resizeParent=1;resizeParentMax=0;resizeLast=0;collapsible=1;marginBottom=0;whiteSpace=wrap;html=1;fillColor=#dae8fc;strokeColor=#6c8ebf;" parent="1" vertex="1">
          <mxGeometry x="2021" y="1777" width="160" height="52" as="geometry" />
        </mxCell>
        <mxCell id="38l18jMETYPESK1Hgw2z-137" value="+Update()" style="text;strokeColor=none;fillColor=none;align=left;verticalAlign=top;spacingLeft=4;spacingRight=4;overflow=hidden;rotatable=0;points=[[0,0.5],[1,0.5]];portConstraint=eastwest;whiteSpace=wrap;html=1;fontStyle=2" parent="38l18jMETYPESK1Hgw2z-136" vertex="1">
          <mxGeometry y="26" width="160" height="26" as="geometry" />
        </mxCell>
        <mxCell id="38l18jMETYPESK1Hgw2z-140" value="ConcreteObserver" style="swimlane;fontStyle=1;align=center;verticalAlign=top;childLayout=stackLayout;horizontal=1;startSize=26;horizontalStack=0;resizeParent=1;resizeParentMax=0;resizeLast=0;collapsible=1;marginBottom=0;whiteSpace=wrap;html=1;fillColor=#dae8fc;strokeColor=#6c8ebf;" parent="1" vertex="1">
          <mxGeometry x="2021" y="1896" width="160" height="52" as="geometry" />
        </mxCell>
        <mxCell id="38l18jMETYPESK1Hgw2z-141" value="+Update()" style="text;strokeColor=none;fillColor=none;align=left;verticalAlign=top;spacingLeft=4;spacingRight=4;overflow=hidden;rotatable=0;points=[[0,0.5],[1,0.5]];portConstraint=eastwest;whiteSpace=wrap;html=1;" parent="38l18jMETYPESK1Hgw2z-140" vertex="1">
          <mxGeometry y="26" width="160" height="26" as="geometry" />
        </mxCell>
        <mxCell id="38l18jMETYPESK1Hgw2z-144" value="" style="endArrow=block;dashed=1;endFill=0;endSize=12;html=1;rounded=0;" parent="1" source="38l18jMETYPESK1Hgw2z-140" target="38l18jMETYPESK1Hgw2z-136" edge="1">
          <mxGeometry width="160" relative="1" as="geometry">
            <mxPoint x="2250" y="1850" as="sourcePoint" />
            <mxPoint x="2410" y="1850" as="targetPoint" />
          </mxGeometry>
        </mxCell>
        <mxCell id="38l18jMETYPESK1Hgw2z-146" style="edgeStyle=orthogonalEdgeStyle;rounded=0;orthogonalLoop=1;jettySize=auto;html=1;" parent="1" source="38l18jMETYPESK1Hgw2z-145" target="38l18jMETYPESK1Hgw2z-140" edge="1">
          <mxGeometry relative="1" as="geometry" />
        </mxCell>
        <mxCell id="38l18jMETYPESK1Hgw2z-145" value="Конкретные наблюдатели могут быть любого типа. Главное: они должны реализовывать IObserver" style="shape=note;whiteSpace=wrap;html=1;backgroundOutline=1;darkOpacity=0.05;align=left;fontFamily=Helvetica;size=18;spacingLeft=3;fillColor=#ffff88;strokeColor=#36393d;" parent="1" vertex="1">
          <mxGeometry x="1820" y="1990" width="260" height="70" as="geometry" />
        </mxCell>
        <mxCell id="38l18jMETYPESK1Hgw2z-149" value="ConcreteObservable" style="swimlane;fontStyle=1;align=center;verticalAlign=top;childLayout=stackLayout;horizontal=1;startSize=26;horizontalStack=0;resizeParent=1;resizeParentMax=0;resizeLast=0;collapsible=1;marginBottom=0;whiteSpace=wrap;html=1;fillColor=#d5e8d4;strokeColor=#82b366;" parent="1" vertex="1">
          <mxGeometry x="1540" y="1850" width="190" height="138" as="geometry" />
        </mxCell>
        <mxCell id="38l18jMETYPESK1Hgw2z-150" value="+RegisterObserver(o:IObserver)" style="text;strokeColor=none;fillColor=none;align=left;verticalAlign=top;spacingLeft=4;spacingRight=4;overflow=hidden;rotatable=0;points=[[0,0.5],[1,0.5]];portConstraint=eastwest;whiteSpace=wrap;html=1;" parent="38l18jMETYPESK1Hgw2z-149" vertex="1">
          <mxGeometry y="26" width="190" height="26" as="geometry" />
        </mxCell>
        <mxCell id="38l18jMETYPESK1Hgw2z-151" value="+RemoveObserver(o:IObserver)" style="text;strokeColor=none;fillColor=none;align=left;verticalAlign=top;spacingLeft=4;spacingRight=4;overflow=hidden;rotatable=0;points=[[0,0.5],[1,0.5]];portConstraint=eastwest;whiteSpace=wrap;html=1;" parent="38l18jMETYPESK1Hgw2z-149" vertex="1">
          <mxGeometry y="52" width="190" height="26" as="geometry" />
        </mxCell>
        <mxCell id="38l18jMETYPESK1Hgw2z-152" value="+NotifyObservers()" style="text;strokeColor=none;fillColor=none;align=left;verticalAlign=top;spacingLeft=4;spacingRight=4;overflow=hidden;rotatable=0;points=[[0,0.5],[1,0.5]];portConstraint=eastwest;whiteSpace=wrap;html=1;" parent="38l18jMETYPESK1Hgw2z-149" vertex="1">
          <mxGeometry y="78" width="190" height="26" as="geometry" />
        </mxCell>
        <mxCell id="ElpbT1YYzYLCR8VsiUTu-125" value="" style="line;strokeWidth=1;fillColor=none;align=left;verticalAlign=middle;spacingTop=-1;spacingLeft=3;spacingRight=3;rotatable=0;labelPosition=right;points=[];portConstraint=eastwest;strokeColor=inherit;" vertex="1" parent="38l18jMETYPESK1Hgw2z-149">
          <mxGeometry y="104" width="190" height="8" as="geometry" />
        </mxCell>
        <mxCell id="ElpbT1YYzYLCR8VsiUTu-126" value="- m_observers: [IObserver]" style="text;strokeColor=none;fillColor=none;align=left;verticalAlign=top;spacingLeft=4;spacingRight=4;overflow=hidden;rotatable=0;points=[[0,0.5],[1,0.5]];portConstraint=eastwest;whiteSpace=wrap;html=1;" vertex="1" parent="38l18jMETYPESK1Hgw2z-149">
          <mxGeometry y="112" width="190" height="26" as="geometry" />
        </mxCell>
        <mxCell id="38l18jMETYPESK1Hgw2z-154" value="" style="endArrow=block;dashed=1;endFill=0;endSize=12;html=1;rounded=0;" parent="1" source="38l18jMETYPESK1Hgw2z-149" target="38l18jMETYPESK1Hgw2z-155" edge="1">
          <mxGeometry width="160" relative="1" as="geometry">
            <mxPoint x="1320" y="1840" as="sourcePoint" />
            <mxPoint x="1480" y="1840" as="targetPoint" />
          </mxGeometry>
        </mxCell>
        <mxCell id="38l18jMETYPESK1Hgw2z-155" value="&lt;i&gt;IObservable&lt;/i&gt;" style="swimlane;fontStyle=1;align=center;verticalAlign=top;childLayout=stackLayout;horizontal=1;startSize=26;horizontalStack=0;resizeParent=1;resizeParentMax=0;resizeLast=0;collapsible=1;marginBottom=0;whiteSpace=wrap;html=1;fillColor=#d5e8d4;strokeColor=#82b366;" parent="1" vertex="1">
          <mxGeometry x="1540" y="1680" width="190" height="104" as="geometry" />
        </mxCell>
        <mxCell id="38l18jMETYPESK1Hgw2z-163" value="+RegisterObserver(o:IObserver)" style="text;strokeColor=none;fillColor=none;align=left;verticalAlign=top;spacingLeft=4;spacingRight=4;overflow=hidden;rotatable=0;points=[[0,0.5],[1,0.5]];portConstraint=eastwest;whiteSpace=wrap;html=1;" parent="38l18jMETYPESK1Hgw2z-155" vertex="1">
          <mxGeometry y="26" width="190" height="26" as="geometry" />
        </mxCell>
        <mxCell id="38l18jMETYPESK1Hgw2z-165" value="+NotifyObservers()" style="text;strokeColor=none;fillColor=none;align=left;verticalAlign=top;spacingLeft=4;spacingRight=4;overflow=hidden;rotatable=0;points=[[0,0.5],[1,0.5]];portConstraint=eastwest;whiteSpace=wrap;html=1;" parent="38l18jMETYPESK1Hgw2z-155" vertex="1">
          <mxGeometry y="52" width="190" height="26" as="geometry" />
        </mxCell>
        <mxCell id="38l18jMETYPESK1Hgw2z-164" value="+RemoveObserver(o:IObserver)" style="text;strokeColor=none;fillColor=none;align=left;verticalAlign=top;spacingLeft=4;spacingRight=4;overflow=hidden;rotatable=0;points=[[0,0.5],[1,0.5]];portConstraint=eastwest;whiteSpace=wrap;html=1;" parent="38l18jMETYPESK1Hgw2z-155" vertex="1">
          <mxGeometry y="78" width="190" height="26" as="geometry" />
        </mxCell>
        <mxCell id="38l18jMETYPESK1Hgw2z-167" style="edgeStyle=orthogonalEdgeStyle;rounded=0;orthogonalLoop=1;jettySize=auto;html=1;" parent="1" source="38l18jMETYPESK1Hgw2z-166" target="38l18jMETYPESK1Hgw2z-149" edge="1">
          <mxGeometry relative="1" as="geometry" />
        </mxCell>
        <mxCell id="38l18jMETYPESK1Hgw2z-166" value="Конкретные наблюдатели могут также иметь методы для изменения состояния" style="shape=note;whiteSpace=wrap;html=1;backgroundOutline=1;darkOpacity=0.05;align=left;fontFamily=Helvetica;size=18;fillColor=#ffff88;strokeColor=#36393d;spacingLeft=3;" parent="1" vertex="1">
          <mxGeometry x="1380" y="2020" width="290" height="70" as="geometry" />
        </mxCell>
      </root>
    </mxGraphModel>
  </diagram>
  <diagram name="Page-2" id="Page-2">
    <mxGraphModel style="default-style2">
      <root>
        <mxCell id="0" />
        <mxCell id="1" parent="0" />
        <UserObject label="" tags="Connector" id="2">
          <mxCell vertex="1" parent="1" visible="0">
            <mxGeometry as="geometry" />
          </mxCell>
        </UserObject>
      </root>
    </mxGraphModel>
  </diagram>
</mxfile>
